<svg width="204" height="83" viewBox="0 0 204 83" fill="none" xmlns="http://www.w3.org/2000/svg">
<path d="M65.1277 8.35503C62.6406 8.07868 60.1811 6.76921 57.6521 6.34772C51.2028 5.27282 44.5911 5.24023 38.0636 5.24023C27.6985 5.24023 15.9327 7.10269 9.19981 15.8305C4.33085 22.1422 5.94658 30.9891 5.94658 38.4993C5.94658 46.0763 6.11676 52.0759 9.68434 58.8147C15.4991 69.7982 33.3835 70.6509 44.0855 70.6509C50.983 70.6509 56.9411 69.405 63.8817 69.405" stroke="#DCF7FF" stroke-width="10" stroke-linecap="round"/>
<path d="M99.3904 70.6504H100.636" stroke="#DCF7FF" stroke-width="10" stroke-linecap="round"/>
<path d="M118.702 10.2235C125.65 10.2235 132.547 10.8464 139.571 10.8464C147.487 10.8464 155.016 9.61942 162.932 11.3309C168.732 12.585 175.677 12.0923 181.621 12.0923C187.964 12.0923 192.612 10.9205 198.441 8.97754" stroke="#DCF7FF" stroke-width="10" stroke-linecap="round"/>
<path d="M160.44 27.0439C160.047 36.8696 158.571 46.5097 158.571 56.4614C158.571 60.1748 157.948 63.984 157.948 67.8477C157.948 69.9321 157.378 76.5957 159.194 77.5036" stroke="#DCF7FF" stroke-width="10" stroke-linecap="round"/>
</svg>
