<svg xmlns="http://www.w3.org/2000/svg" xmlns:xlink="http://www.w3.org/1999/xlink" width="129" zoomAndPan="magnify" viewBox="0 0 96.75 48" height="64" preserveAspectRatio="xMidYMid meet" version="1.0"><defs><g/><clipPath id="a2b8dbb6af"><path d="M 15 6 L 19 6 L 19 8 L 15 8 Z M 15 6 " clip-rule="nonzero"/></clipPath><clipPath id="43671681cf"><path d="M 1.464844 17.332031 L 25.335938 0.191406 L 41.621094 22.867188 L 17.75 40.007812 Z M 1.464844 17.332031 " clip-rule="nonzero"/></clipPath><clipPath id="bfbdf7b094"><path d="M 1.464844 17.332031 L 25.335938 0.191406 L 41.621094 22.867188 L 17.75 40.007812 Z M 1.464844 17.332031 " clip-rule="nonzero"/></clipPath><clipPath id="a3c8be4280"><path d="M 17 6 L 20 6 L 20 8 L 17 8 Z M 17 6 " clip-rule="nonzero"/></clipPath><clipPath id="0317bf4a67"><path d="M 1.464844 17.332031 L 25.335938 0.191406 L 41.621094 22.867188 L 17.75 40.007812 Z M 1.464844 17.332031 " clip-rule="nonzero"/></clipPath><clipPath id="08d23bfb29"><path d="M 1.464844 17.332031 L 25.335938 0.191406 L 41.621094 22.867188 L 17.75 40.007812 Z M 1.464844 17.332031 " clip-rule="nonzero"/></clipPath><clipPath id="6e827603d2"><path d="M 19 6 L 21 6 L 21 8 L 19 8 Z M 19 6 " clip-rule="nonzero"/></clipPath><clipPath id="6809534ad9"><path d="M 1.464844 17.332031 L 25.335938 0.191406 L 41.621094 22.867188 L 17.75 40.007812 Z M 1.464844 17.332031 " clip-rule="nonzero"/></clipPath><clipPath id="a337491499"><path d="M 1.464844 17.332031 L 25.335938 0.191406 L 41.621094 22.867188 L 17.75 40.007812 Z M 1.464844 17.332031 " clip-rule="nonzero"/></clipPath><clipPath id="b782ce1b59"><path d="M 21 6 L 23 6 L 23 8 L 21 8 Z M 21 6 " clip-rule="nonzero"/></clipPath><clipPath id="4dd7943920"><path d="M 1.464844 17.332031 L 25.335938 0.191406 L 41.621094 22.867188 L 17.75 40.007812 Z M 1.464844 17.332031 " clip-rule="nonzero"/></clipPath><clipPath id="9a393fb899"><path d="M 1.464844 17.332031 L 25.335938 0.191406 L 41.621094 22.867188 L 17.75 40.007812 Z M 1.464844 17.332031 " clip-rule="nonzero"/></clipPath><clipPath id="0e462cbe6e"><path d="M 23 6 L 26 6 L 26 8 L 23 8 Z M 23 6 " clip-rule="nonzero"/></clipPath><clipPath id="d2c4ba8e38"><path d="M 1.464844 17.332031 L 25.335938 0.191406 L 41.621094 22.867188 L 17.75 40.007812 Z M 1.464844 17.332031 " clip-rule="nonzero"/></clipPath><clipPath id="7cbc637f9a"><path d="M 1.464844 17.332031 L 25.335938 0.191406 L 41.621094 22.867188 L 17.75 40.007812 Z M 1.464844 17.332031 " clip-rule="nonzero"/></clipPath><clipPath id="dd2aec4b3a"><path d="M 24 6 L 28 6 L 28 8 L 24 8 Z M 24 6 " clip-rule="nonzero"/></clipPath><clipPath id="2d6e82efca"><path d="M 1.464844 17.332031 L 25.335938 0.191406 L 41.621094 22.867188 L 17.75 40.007812 Z M 1.464844 17.332031 " clip-rule="nonzero"/></clipPath><clipPath id="9af98f04f4"><path d="M 1.464844 17.332031 L 25.335938 0.191406 L 41.621094 22.867188 L 17.75 40.007812 Z M 1.464844 17.332031 " clip-rule="nonzero"/></clipPath><clipPath id="7e7bb86fe2"><path d="M 25 6 L 29 6 L 29 8 L 25 8 Z M 25 6 " clip-rule="nonzero"/></clipPath><clipPath id="6bdccb3ed1"><path d="M 1.464844 17.332031 L 25.335938 0.191406 L 41.621094 22.867188 L 17.75 40.007812 Z M 1.464844 17.332031 " clip-rule="nonzero"/></clipPath><clipPath id="ced58edac9"><path d="M 1.464844 17.332031 L 25.335938 0.191406 L 41.621094 22.867188 L 17.75 40.007812 Z M 1.464844 17.332031 " clip-rule="nonzero"/></clipPath><clipPath id="48693c00b0"><path d="M 11 8 L 15 8 L 15 11 L 11 11 Z M 11 8 " clip-rule="nonzero"/></clipPath><clipPath id="f5993ed048"><path d="M 1.464844 17.332031 L 25.335938 0.191406 L 41.621094 22.867188 L 17.75 40.007812 Z M 1.464844 17.332031 " clip-rule="nonzero"/></clipPath><clipPath id="2e3a4b1c13"><path d="M 1.464844 17.332031 L 25.335938 0.191406 L 41.621094 22.867188 L 17.75 40.007812 Z M 1.464844 17.332031 " clip-rule="nonzero"/></clipPath><clipPath id="cad63b7f9c"><path d="M 13 8 L 16 8 L 16 11 L 13 11 Z M 13 8 " clip-rule="nonzero"/></clipPath><clipPath id="4eb080a245"><path d="M 1.464844 17.332031 L 25.335938 0.191406 L 41.621094 22.867188 L 17.75 40.007812 Z M 1.464844 17.332031 " clip-rule="nonzero"/></clipPath><clipPath id="6d21c2a63b"><path d="M 1.464844 17.332031 L 25.335938 0.191406 L 41.621094 22.867188 L 17.75 40.007812 Z M 1.464844 17.332031 " clip-rule="nonzero"/></clipPath><clipPath id="bef35ff03d"><path d="M 15 8 L 19 8 L 19 11 L 15 11 Z M 15 8 " clip-rule="nonzero"/></clipPath><clipPath id="e4952ca15d"><path d="M 1.464844 17.332031 L 25.335938 0.191406 L 41.621094 22.867188 L 17.75 40.007812 Z M 1.464844 17.332031 " clip-rule="nonzero"/></clipPath><clipPath id="af438d3cab"><path d="M 1.464844 17.332031 L 25.335938 0.191406 L 41.621094 22.867188 L 17.75 40.007812 Z M 1.464844 17.332031 " clip-rule="nonzero"/></clipPath><clipPath id="ed287b1deb"><path d="M 19 8 L 22 8 L 22 11 L 19 11 Z M 19 8 " clip-rule="nonzero"/></clipPath><clipPath id="be9884a9f0"><path d="M 1.464844 17.332031 L 25.335938 0.191406 L 41.621094 22.867188 L 17.75 40.007812 Z M 1.464844 17.332031 " clip-rule="nonzero"/></clipPath><clipPath id="5cf2d872b2"><path d="M 1.464844 17.332031 L 25.335938 0.191406 L 41.621094 22.867188 L 17.75 40.007812 Z M 1.464844 17.332031 " clip-rule="nonzero"/></clipPath><clipPath id="4f69094ec2"><path d="M 22 8 L 25 8 L 25 11 L 22 11 Z M 22 8 " clip-rule="nonzero"/></clipPath><clipPath id="3ce0748fda"><path d="M 1.464844 17.332031 L 25.335938 0.191406 L 41.621094 22.867188 L 17.75 40.007812 Z M 1.464844 17.332031 " clip-rule="nonzero"/></clipPath><clipPath id="ce6b07affa"><path d="M 1.464844 17.332031 L 25.335938 0.191406 L 41.621094 22.867188 L 17.75 40.007812 Z M 1.464844 17.332031 " clip-rule="nonzero"/></clipPath><clipPath id="86f96528b2"><path d="M 25 8 L 29 8 L 29 11 L 25 11 Z M 25 8 " clip-rule="nonzero"/></clipPath><clipPath id="fb31117cbe"><path d="M 1.464844 17.332031 L 25.335938 0.191406 L 41.621094 22.867188 L 17.75 40.007812 Z M 1.464844 17.332031 " clip-rule="nonzero"/></clipPath><clipPath id="86c03ef3e8"><path d="M 1.464844 17.332031 L 25.335938 0.191406 L 41.621094 22.867188 L 17.75 40.007812 Z M 1.464844 17.332031 " clip-rule="nonzero"/></clipPath><clipPath id="bb49f96054"><path d="M 28 8 L 31 8 L 31 11 L 28 11 Z M 28 8 " clip-rule="nonzero"/></clipPath><clipPath id="0b87c356b8"><path d="M 1.464844 17.332031 L 25.335938 0.191406 L 41.621094 22.867188 L 17.75 40.007812 Z M 1.464844 17.332031 " clip-rule="nonzero"/></clipPath><clipPath id="9e1e4ca6f7"><path d="M 1.464844 17.332031 L 25.335938 0.191406 L 41.621094 22.867188 L 17.75 40.007812 Z M 1.464844 17.332031 " clip-rule="nonzero"/></clipPath><clipPath id="3357c24f24"><path d="M 29 8 L 33 8 L 33 11 L 29 11 Z M 29 8 " clip-rule="nonzero"/></clipPath><clipPath id="28e5d635e3"><path d="M 1.464844 17.332031 L 25.335938 0.191406 L 41.621094 22.867188 L 17.75 40.007812 Z M 1.464844 17.332031 " clip-rule="nonzero"/></clipPath><clipPath id="4539ac6958"><path d="M 1.464844 17.332031 L 25.335938 0.191406 L 41.621094 22.867188 L 17.75 40.007812 Z M 1.464844 17.332031 " clip-rule="nonzero"/></clipPath><clipPath id="6912725f65"><path d="M 8 11 L 11 11 L 11 14 L 8 14 Z M 8 11 " clip-rule="nonzero"/></clipPath><clipPath id="4444ca30d0"><path d="M 1.464844 17.332031 L 25.335938 0.191406 L 41.621094 22.867188 L 17.75 40.007812 Z M 1.464844 17.332031 " clip-rule="nonzero"/></clipPath><clipPath id="d10a1fbe67"><path d="M 1.464844 17.332031 L 25.335938 0.191406 L 41.621094 22.867188 L 17.75 40.007812 Z M 1.464844 17.332031 " clip-rule="nonzero"/></clipPath><clipPath id="0cd88d21f9"><path d="M 10 10 L 13 10 L 13 14 L 10 14 Z M 10 10 " clip-rule="nonzero"/></clipPath><clipPath id="d9116b9800"><path d="M 1.464844 17.332031 L 25.335938 0.191406 L 41.621094 22.867188 L 17.75 40.007812 Z M 1.464844 17.332031 " clip-rule="nonzero"/></clipPath><clipPath id="57a1d1324d"><path d="M 1.464844 17.332031 L 25.335938 0.191406 L 41.621094 22.867188 L 17.75 40.007812 Z M 1.464844 17.332031 " clip-rule="nonzero"/></clipPath><clipPath id="ba08b9b27b"><path d="M 12 10 L 16 10 L 16 14 L 12 14 Z M 12 10 " clip-rule="nonzero"/></clipPath><clipPath id="bc901d77f6"><path d="M 1.464844 17.332031 L 25.335938 0.191406 L 41.621094 22.867188 L 17.75 40.007812 Z M 1.464844 17.332031 " clip-rule="nonzero"/></clipPath><clipPath id="d2cf39090b"><path d="M 1.464844 17.332031 L 25.335938 0.191406 L 41.621094 22.867188 L 17.75 40.007812 Z M 1.464844 17.332031 " clip-rule="nonzero"/></clipPath><clipPath id="71a264fc5b"><path d="M 16 10 L 20 10 L 20 14 L 16 14 Z M 16 10 " clip-rule="nonzero"/></clipPath><clipPath id="69afff53ca"><path d="M 1.464844 17.332031 L 25.335938 0.191406 L 41.621094 22.867188 L 17.75 40.007812 Z M 1.464844 17.332031 " clip-rule="nonzero"/></clipPath><clipPath id="cb1207b976"><path d="M 1.464844 17.332031 L 25.335938 0.191406 L 41.621094 22.867188 L 17.75 40.007812 Z M 1.464844 17.332031 " clip-rule="nonzero"/></clipPath><clipPath id="84309264e5"><path d="M 20 10 L 24 10 L 24 14 L 20 14 Z M 20 10 " clip-rule="nonzero"/></clipPath><clipPath id="b6842a92d2"><path d="M 1.464844 17.332031 L 25.335938 0.191406 L 41.621094 22.867188 L 17.75 40.007812 Z M 1.464844 17.332031 " clip-rule="nonzero"/></clipPath><clipPath id="206cce4ff6"><path d="M 1.464844 17.332031 L 25.335938 0.191406 L 41.621094 22.867188 L 17.75 40.007812 Z M 1.464844 17.332031 " clip-rule="nonzero"/></clipPath><clipPath id="df0a13a5e4"><path d="M 24 10 L 28 10 L 28 14 L 24 14 Z M 24 10 " clip-rule="nonzero"/></clipPath><clipPath id="12479a77bc"><path d="M 1.464844 17.332031 L 25.335938 0.191406 L 41.621094 22.867188 L 17.75 40.007812 Z M 1.464844 17.332031 " clip-rule="nonzero"/></clipPath><clipPath id="eb182e12fb"><path d="M 1.464844 17.332031 L 25.335938 0.191406 L 41.621094 22.867188 L 17.75 40.007812 Z M 1.464844 17.332031 " clip-rule="nonzero"/></clipPath><clipPath id="0acaebeaec"><path d="M 28 10 L 32 10 L 32 14 L 28 14 Z M 28 10 " clip-rule="nonzero"/></clipPath><clipPath id="c59aa140bf"><path d="M 1.464844 17.332031 L 25.335938 0.191406 L 41.621094 22.867188 L 17.75 40.007812 Z M 1.464844 17.332031 " clip-rule="nonzero"/></clipPath><clipPath id="635052bf66"><path d="M 1.464844 17.332031 L 25.335938 0.191406 L 41.621094 22.867188 L 17.75 40.007812 Z M 1.464844 17.332031 " clip-rule="nonzero"/></clipPath><clipPath id="8cc47ca985"><path d="M 31 11 L 34 11 L 34 15 L 31 15 Z M 31 11 " clip-rule="nonzero"/></clipPath><clipPath id="49f51d9962"><path d="M 1.464844 17.332031 L 25.335938 0.191406 L 41.621094 22.867188 L 17.75 40.007812 Z M 1.464844 17.332031 " clip-rule="nonzero"/></clipPath><clipPath id="16f5c8640b"><path d="M 1.464844 17.332031 L 25.335938 0.191406 L 41.621094 22.867188 L 17.75 40.007812 Z M 1.464844 17.332031 " clip-rule="nonzero"/></clipPath><clipPath id="600f48ffee"><path d="M 33 11 L 36 11 L 36 15 L 33 15 Z M 33 11 " clip-rule="nonzero"/></clipPath><clipPath id="b6c324a2a9"><path d="M 1.464844 17.332031 L 25.335938 0.191406 L 41.621094 22.867188 L 17.75 40.007812 Z M 1.464844 17.332031 " clip-rule="nonzero"/></clipPath><clipPath id="3529df8ea9"><path d="M 1.464844 17.332031 L 25.335938 0.191406 L 41.621094 22.867188 L 17.75 40.007812 Z M 1.464844 17.332031 " clip-rule="nonzero"/></clipPath><clipPath id="4280b28e86"><path d="M 8 14 L 10 14 L 10 18 L 8 18 Z M 8 14 " clip-rule="nonzero"/></clipPath><clipPath id="02040dda3a"><path d="M 1.464844 17.332031 L 25.335938 0.191406 L 41.621094 22.867188 L 17.75 40.007812 Z M 1.464844 17.332031 " clip-rule="nonzero"/></clipPath><clipPath id="b02923744e"><path d="M 1.464844 17.332031 L 25.335938 0.191406 L 41.621094 22.867188 L 17.75 40.007812 Z M 1.464844 17.332031 " clip-rule="nonzero"/></clipPath><clipPath id="7610dbc867"><path d="M 9 14 L 13 14 L 13 18 L 9 18 Z M 9 14 " clip-rule="nonzero"/></clipPath><clipPath id="6ce0f78528"><path d="M 1.464844 17.332031 L 25.335938 0.191406 L 41.621094 22.867188 L 17.75 40.007812 Z M 1.464844 17.332031 " clip-rule="nonzero"/></clipPath><clipPath id="4573ff9182"><path d="M 1.464844 17.332031 L 25.335938 0.191406 L 41.621094 22.867188 L 17.75 40.007812 Z M 1.464844 17.332031 " clip-rule="nonzero"/></clipPath><clipPath id="ad04cd81a2"><path d="M 13 13 L 17 13 L 17 18 L 13 18 Z M 13 13 " clip-rule="nonzero"/></clipPath><clipPath id="b155efd227"><path d="M 1.464844 17.332031 L 25.335938 0.191406 L 41.621094 22.867188 L 17.75 40.007812 Z M 1.464844 17.332031 " clip-rule="nonzero"/></clipPath><clipPath id="9f46103af0"><path d="M 1.464844 17.332031 L 25.335938 0.191406 L 41.621094 22.867188 L 17.75 40.007812 Z M 1.464844 17.332031 " clip-rule="nonzero"/></clipPath><clipPath id="93d9867f14"><path d="M 17 13 L 22 13 L 22 18 L 17 18 Z M 17 13 " clip-rule="nonzero"/></clipPath><clipPath id="399b94a5da"><path d="M 1.464844 17.332031 L 25.335938 0.191406 L 41.621094 22.867188 L 17.75 40.007812 Z M 1.464844 17.332031 " clip-rule="nonzero"/></clipPath><clipPath id="e5e0c50fd2"><path d="M 1.464844 17.332031 L 25.335938 0.191406 L 41.621094 22.867188 L 17.75 40.007812 Z M 1.464844 17.332031 " clip-rule="nonzero"/></clipPath><clipPath id="eaa96d1a1f"><path d="M 27 14 L 31 14 L 31 18 L 27 18 Z M 27 14 " clip-rule="nonzero"/></clipPath><clipPath id="c8f676f3f8"><path d="M 1.464844 17.332031 L 25.335938 0.191406 L 41.621094 22.867188 L 17.75 40.007812 Z M 1.464844 17.332031 " clip-rule="nonzero"/></clipPath><clipPath id="46a3f93bcf"><path d="M 1.464844 17.332031 L 25.335938 0.191406 L 41.621094 22.867188 L 17.75 40.007812 Z M 1.464844 17.332031 " clip-rule="nonzero"/></clipPath><clipPath id="aa1d0916b1"><path d="M 7 18 L 8 18 L 8 23 L 7 23 Z M 7 18 " clip-rule="nonzero"/></clipPath><clipPath id="29e07eda06"><path d="M 1.464844 17.332031 L 25.335938 0.191406 L 41.621094 22.867188 L 17.75 40.007812 Z M 1.464844 17.332031 " clip-rule="nonzero"/></clipPath><clipPath id="3ea27d5ca8"><path d="M 1.464844 17.332031 L 25.335938 0.191406 L 41.621094 22.867188 L 17.75 40.007812 Z M 1.464844 17.332031 " clip-rule="nonzero"/></clipPath><clipPath id="c90948a6c3"><path d="M 8 18 L 10 18 L 10 22 L 8 22 Z M 8 18 " clip-rule="nonzero"/></clipPath><clipPath id="ee0850311d"><path d="M 1.464844 17.332031 L 25.335938 0.191406 L 41.621094 22.867188 L 17.75 40.007812 Z M 1.464844 17.332031 " clip-rule="nonzero"/></clipPath><clipPath id="fe5f8cdbee"><path d="M 1.464844 17.332031 L 25.335938 0.191406 L 41.621094 22.867188 L 17.75 40.007812 Z M 1.464844 17.332031 " clip-rule="nonzero"/></clipPath><clipPath id="a8061b67cd"><path d="M 10 17 L 14 17 L 14 22 L 10 22 Z M 10 17 " clip-rule="nonzero"/></clipPath><clipPath id="7299dfaa80"><path d="M 1.464844 17.332031 L 25.335938 0.191406 L 41.621094 22.867188 L 17.75 40.007812 Z M 1.464844 17.332031 " clip-rule="nonzero"/></clipPath><clipPath id="f2bd7ea112"><path d="M 1.464844 17.332031 L 25.335938 0.191406 L 41.621094 22.867188 L 17.75 40.007812 Z M 1.464844 17.332031 " clip-rule="nonzero"/></clipPath><clipPath id="67f062b758"><path d="M 15 17 L 19 17 L 19 22 L 15 22 Z M 15 17 " clip-rule="nonzero"/></clipPath><clipPath id="358fe19fd1"><path d="M 1.464844 17.332031 L 25.335938 0.191406 L 41.621094 22.867188 L 17.75 40.007812 Z M 1.464844 17.332031 " clip-rule="nonzero"/></clipPath><clipPath id="da3cb38707"><path d="M 1.464844 17.332031 L 25.335938 0.191406 L 41.621094 22.867188 L 17.75 40.007812 Z M 1.464844 17.332031 " clip-rule="nonzero"/></clipPath><clipPath id="087ec58393"><path d="M 20 17 L 24 17 L 24 22 L 20 22 Z M 20 17 " clip-rule="nonzero"/></clipPath><clipPath id="ad6d9086b9"><path d="M 1.464844 17.332031 L 25.335938 0.191406 L 41.621094 22.867188 L 17.75 40.007812 Z M 1.464844 17.332031 " clip-rule="nonzero"/></clipPath><clipPath id="af40530c66"><path d="M 1.464844 17.332031 L 25.335938 0.191406 L 41.621094 22.867188 L 17.75 40.007812 Z M 1.464844 17.332031 " clip-rule="nonzero"/></clipPath><clipPath id="1aa53785f6"><path d="M 7 23 L 10 23 L 10 27 L 7 27 Z M 7 23 " clip-rule="nonzero"/></clipPath><clipPath id="66f060053f"><path d="M 1.464844 17.332031 L 25.335938 0.191406 L 41.621094 22.867188 L 17.75 40.007812 Z M 1.464844 17.332031 " clip-rule="nonzero"/></clipPath><clipPath id="957dcf1e98"><path d="M 1.464844 17.332031 L 25.335938 0.191406 L 41.621094 22.867188 L 17.75 40.007812 Z M 1.464844 17.332031 " clip-rule="nonzero"/></clipPath><clipPath id="dcc0b70495"><path d="M 9 22 L 12 22 L 12 27 L 9 27 Z M 9 22 " clip-rule="nonzero"/></clipPath><clipPath id="c09635f6f8"><path d="M 1.464844 17.332031 L 25.335938 0.191406 L 41.621094 22.867188 L 17.75 40.007812 Z M 1.464844 17.332031 " clip-rule="nonzero"/></clipPath><clipPath id="a45990759e"><path d="M 1.464844 17.332031 L 25.335938 0.191406 L 41.621094 22.867188 L 17.75 40.007812 Z M 1.464844 17.332031 " clip-rule="nonzero"/></clipPath><clipPath id="804228f763"><path d="M 13 22 L 17 22 L 17 27 L 13 27 Z M 13 22 " clip-rule="nonzero"/></clipPath><clipPath id="5510a201f5"><path d="M 1.464844 17.332031 L 25.335938 0.191406 L 41.621094 22.867188 L 17.75 40.007812 Z M 1.464844 17.332031 " clip-rule="nonzero"/></clipPath><clipPath id="edb9277cca"><path d="M 1.464844 17.332031 L 25.335938 0.191406 L 41.621094 22.867188 L 17.75 40.007812 Z M 1.464844 17.332031 " clip-rule="nonzero"/></clipPath><clipPath id="86e4af8a08"><path d="M 17 22 L 22 22 L 22 27 L 17 27 Z M 17 22 " clip-rule="nonzero"/></clipPath><clipPath id="d40e5f9f36"><path d="M 1.464844 17.332031 L 25.335938 0.191406 L 41.621094 22.867188 L 17.75 40.007812 Z M 1.464844 17.332031 " clip-rule="nonzero"/></clipPath><clipPath id="4bd8cd99ed"><path d="M 1.464844 17.332031 L 25.335938 0.191406 L 41.621094 22.867188 L 17.75 40.007812 Z M 1.464844 17.332031 " clip-rule="nonzero"/></clipPath><clipPath id="43f6d1af12"><path d="M 9 27 L 11 27 L 11 31 L 9 31 Z M 9 27 " clip-rule="nonzero"/></clipPath><clipPath id="dae5578357"><path d="M 1.464844 17.332031 L 25.335938 0.191406 L 41.621094 22.867188 L 17.75 40.007812 Z M 1.464844 17.332031 " clip-rule="nonzero"/></clipPath><clipPath id="ce4bd3eee3"><path d="M 1.464844 17.332031 L 25.335938 0.191406 L 41.621094 22.867188 L 17.75 40.007812 Z M 1.464844 17.332031 " clip-rule="nonzero"/></clipPath><clipPath id="53aad2c566"><path d="M 10 26 L 13 26 L 13 30 L 10 30 Z M 10 26 " clip-rule="nonzero"/></clipPath><clipPath id="4222132c4f"><path d="M 1.464844 17.332031 L 25.335938 0.191406 L 41.621094 22.867188 L 17.75 40.007812 Z M 1.464844 17.332031 " clip-rule="nonzero"/></clipPath><clipPath id="898eb6c085"><path d="M 1.464844 17.332031 L 25.335938 0.191406 L 41.621094 22.867188 L 17.75 40.007812 Z M 1.464844 17.332031 " clip-rule="nonzero"/></clipPath><clipPath id="911327b312"><path d="M 12 26 L 16 26 L 16 30 L 12 30 Z M 12 26 " clip-rule="nonzero"/></clipPath><clipPath id="5277b3a063"><path d="M 1.464844 17.332031 L 25.335938 0.191406 L 41.621094 22.867188 L 17.75 40.007812 Z M 1.464844 17.332031 " clip-rule="nonzero"/></clipPath><clipPath id="47d74a8f64"><path d="M 1.464844 17.332031 L 25.335938 0.191406 L 41.621094 22.867188 L 17.75 40.007812 Z M 1.464844 17.332031 " clip-rule="nonzero"/></clipPath><clipPath id="5d35f319f5"><path d="M 11 30 L 15 30 L 15 33 L 11 33 Z M 11 30 " clip-rule="nonzero"/></clipPath><clipPath id="a5e9c47d2b"><path d="M 1.464844 17.332031 L 25.335938 0.191406 L 41.621094 22.867188 L 17.75 40.007812 Z M 1.464844 17.332031 " clip-rule="nonzero"/></clipPath><clipPath id="c2d82cbcc2"><path d="M 1.464844 17.332031 L 25.335938 0.191406 L 41.621094 22.867188 L 17.75 40.007812 Z M 1.464844 17.332031 " clip-rule="nonzero"/></clipPath><clipPath id="7ab67d35e2"><path d="M 13 30 L 16 30 L 16 33 L 13 33 Z M 13 30 " clip-rule="nonzero"/></clipPath><clipPath id="c6e710ca63"><path d="M 1.464844 17.332031 L 25.335938 0.191406 L 41.621094 22.867188 L 17.75 40.007812 Z M 1.464844 17.332031 " clip-rule="nonzero"/></clipPath><clipPath id="90eb551cb3"><path d="M 1.464844 17.332031 L 25.335938 0.191406 L 41.621094 22.867188 L 17.75 40.007812 Z M 1.464844 17.332031 " clip-rule="nonzero"/></clipPath><clipPath id="af5411fccd"><path d="M 15 30 L 19 30 L 19 33 L 15 33 Z M 15 30 " clip-rule="nonzero"/></clipPath><clipPath id="92251e77e1"><path d="M 1.464844 17.332031 L 25.335938 0.191406 L 41.621094 22.867188 L 17.75 40.007812 Z M 1.464844 17.332031 " clip-rule="nonzero"/></clipPath><clipPath id="52c86433af"><path d="M 1.464844 17.332031 L 25.335938 0.191406 L 41.621094 22.867188 L 17.75 40.007812 Z M 1.464844 17.332031 " clip-rule="nonzero"/></clipPath><clipPath id="63f61fb5c4"><path d="M 18 30 L 22 30 L 22 33 L 18 33 Z M 18 30 " clip-rule="nonzero"/></clipPath><clipPath id="59f65b3de4"><path d="M 1.464844 17.332031 L 25.335938 0.191406 L 41.621094 22.867188 L 17.75 40.007812 Z M 1.464844 17.332031 " clip-rule="nonzero"/></clipPath><clipPath id="13f1ebc45e"><path d="M 1.464844 17.332031 L 25.335938 0.191406 L 41.621094 22.867188 L 17.75 40.007812 Z M 1.464844 17.332031 " clip-rule="nonzero"/></clipPath><clipPath id="e3458b4666"><path d="M 15 32 L 19 32 L 19 35 L 15 35 Z M 15 32 " clip-rule="nonzero"/></clipPath><clipPath id="27d1f00030"><path d="M 1.464844 17.332031 L 25.335938 0.191406 L 41.621094 22.867188 L 17.75 40.007812 Z M 1.464844 17.332031 " clip-rule="nonzero"/></clipPath><clipPath id="5166da3073"><path d="M 1.464844 17.332031 L 25.335938 0.191406 L 41.621094 22.867188 L 17.75 40.007812 Z M 1.464844 17.332031 " clip-rule="nonzero"/></clipPath><clipPath id="fc44bb87fd"><path d="M 16 32 L 20 32 L 20 35 L 16 35 Z M 16 32 " clip-rule="nonzero"/></clipPath><clipPath id="554aa7a6b2"><path d="M 1.464844 17.332031 L 25.335938 0.191406 L 41.621094 22.867188 L 17.75 40.007812 Z M 1.464844 17.332031 " clip-rule="nonzero"/></clipPath><clipPath id="2bcfaca1f5"><path d="M 1.464844 17.332031 L 25.335938 0.191406 L 41.621094 22.867188 L 17.75 40.007812 Z M 1.464844 17.332031 " clip-rule="nonzero"/></clipPath><clipPath id="2d9163c973"><path d="M 18 32 L 21 32 L 21 35 L 18 35 Z M 18 32 " clip-rule="nonzero"/></clipPath><clipPath id="e0d6c9ba0b"><path d="M 1.464844 17.332031 L 25.335938 0.191406 L 41.621094 22.867188 L 17.75 40.007812 Z M 1.464844 17.332031 " clip-rule="nonzero"/></clipPath><clipPath id="6fa51be5ea"><path d="M 1.464844 17.332031 L 25.335938 0.191406 L 41.621094 22.867188 L 17.75 40.007812 Z M 1.464844 17.332031 " clip-rule="nonzero"/></clipPath><clipPath id="bfeaa982de"><path d="M 20 32 L 23 32 L 23 35 L 20 35 Z M 20 32 " clip-rule="nonzero"/></clipPath><clipPath id="016235c1ed"><path d="M 1.464844 17.332031 L 25.335938 0.191406 L 41.621094 22.867188 L 17.75 40.007812 Z M 1.464844 17.332031 " clip-rule="nonzero"/></clipPath><clipPath id="7f67a4a05e"><path d="M 1.464844 17.332031 L 25.335938 0.191406 L 41.621094 22.867188 L 17.75 40.007812 Z M 1.464844 17.332031 " clip-rule="nonzero"/></clipPath><clipPath id="6c10c0a4bd"><path d="M 22 32 L 25 32 L 25 35 L 22 35 Z M 22 32 " clip-rule="nonzero"/></clipPath><clipPath id="4ae28115a1"><path d="M 1.464844 17.332031 L 25.335938 0.191406 L 41.621094 22.867188 L 17.75 40.007812 Z M 1.464844 17.332031 " clip-rule="nonzero"/></clipPath><clipPath id="8557e13133"><path d="M 1.464844 17.332031 L 25.335938 0.191406 L 41.621094 22.867188 L 17.75 40.007812 Z M 1.464844 17.332031 " clip-rule="nonzero"/></clipPath><clipPath id="56f747783e"><path d="M 24 33 L 27 33 L 27 35 L 24 35 Z M 24 33 " clip-rule="nonzero"/></clipPath><clipPath id="4ad29bf7c8"><path d="M 1.464844 17.332031 L 25.335938 0.191406 L 41.621094 22.867188 L 17.75 40.007812 Z M 1.464844 17.332031 " clip-rule="nonzero"/></clipPath><clipPath id="4bfcc95b34"><path d="M 1.464844 17.332031 L 25.335938 0.191406 L 41.621094 22.867188 L 17.75 40.007812 Z M 1.464844 17.332031 " clip-rule="nonzero"/></clipPath></defs><g clip-path="url(#a2b8dbb6af)"><g clip-path="url(#43671681cf)"><g clip-path="url(#bfbdf7b094)"><path fill="#328281" d="M 17.273438 7.085938 C 15.765625 7.761719 15.675781 7.804688 15.585938 7.761719 C 15.691406 7.449219 17.808594 6.65625 18.574219 6.539062 C 18.542969 6.5625 18.542969 6.5625 18.386719 6.621094 C 18.082031 6.738281 17.773438 6.859375 17.273438 7.085938 " fill-opacity="1" fill-rule="nonzero"/></g></g></g><g clip-path="url(#a3c8be4280)"><g clip-path="url(#0317bf4a67)"><g clip-path="url(#08d23bfb29)"><path fill="#328281" d="M 18.78125 7.015625 C 17.605469 7.726562 16.980469 7.765625 17.046875 7.546875 C 17.164062 7.164062 18.78125 6.535156 19.449219 6.480469 C 19.464844 6.480469 19.488281 6.480469 19.503906 6.484375 C 19.507812 6.492188 19.511719 6.5 19.511719 6.503906 C 19.453125 6.605469 18.808594 7 18.78125 7.015625 " fill-opacity="1" fill-rule="nonzero"/></g></g></g><g clip-path="url(#6e827603d2)"><g clip-path="url(#6809534ad9)"><g clip-path="url(#a337491499)"><path fill="#328281" d="M 20.765625 6.992188 C 20.257812 7.652344 19.199219 7.765625 19.148438 7.398438 C 19.089844 7 20.152344 6.476562 20.730469 6.453125 C 21.164062 6.46875 20.78125 6.972656 20.765625 6.992188 " fill-opacity="1" fill-rule="nonzero"/></g></g></g><g clip-path="url(#b782ce1b59)"><g clip-path="url(#4dd7943920)"><g clip-path="url(#9a393fb899)"><path fill="#328281" d="M 22.859375 7.023438 C 22.960938 7.558594 22.125 7.800781 21.652344 7.492188 C 21.15625 7.164062 21.515625 6.582031 22 6.476562 C 22.058594 6.464844 22.109375 6.460938 22.148438 6.460938 C 22.523438 6.484375 22.808594 6.769531 22.859375 7.023438 " fill-opacity="1" fill-rule="nonzero"/></g></g></g><g clip-path="url(#0e462cbe6e)"><g clip-path="url(#d2c4ba8e38)"><g clip-path="url(#7cbc637f9a)"><path fill="#328281" d="M 24.847656 7.097656 C 25.210938 7.433594 25.09375 7.683594 24.761719 7.703125 C 23.953125 7.75 23.125 6.792969 23.390625 6.542969 C 23.429688 6.503906 23.5 6.503906 23.550781 6.503906 C 23.890625 6.53125 24.503906 6.78125 24.847656 7.097656 " fill-opacity="1" fill-rule="nonzero"/></g></g></g><g clip-path="url(#dd2aec4b3a)"><g clip-path="url(#2d6e82efca)"><g clip-path="url(#9af98f04f4)"><path fill="#328281" d="M 26.515625 7.210938 C 27.070312 7.523438 27.21875 7.773438 27.035156 7.820312 C 26.910156 7.855469 26.574219 7.792969 26.042969 7.507812 C 25.59375 7.265625 24.710938 6.664062 24.714844 6.582031 C 24.730469 6.570312 24.738281 6.570312 24.78125 6.570312 C 25.101562 6.605469 25.917969 6.867188 26.515625 7.210938 " fill-opacity="1" fill-rule="nonzero"/></g></g></g><g clip-path="url(#7e7bb86fe2)"><g clip-path="url(#6bdccb3ed1)"><g clip-path="url(#ced58edac9)"><path fill="#328281" d="M 27.628906 7.347656 C 28.132812 7.585938 28.660156 7.894531 28.636719 7.988281 C 28.609375 8 28.550781 8.019531 28.101562 7.816406 C 28.082031 7.808594 25.707031 6.683594 25.679688 6.664062 L 25.695312 6.660156 C 25.863281 6.691406 26.738281 6.933594 27.628906 7.347656 " fill-opacity="1" fill-rule="nonzero"/></g></g></g><g clip-path="url(#48693c00b0)"><g clip-path="url(#f5993ed048)"><g clip-path="url(#2e3a4b1c13)"><path fill="#328281" d="M 13.269531 9.375 C 12.34375 10.175781 11.828125 10.550781 11.730469 10.484375 C 11.691406 10.140625 13.777344 8.492188 14.359375 8.320312 L 14.382812 8.320312 C 14.386719 8.359375 14.390625 8.402344 13.269531 9.375 " fill-opacity="1" fill-rule="nonzero"/></g></g></g><g clip-path="url(#cad63b7f9c)"><g clip-path="url(#4eb080a245)"><g clip-path="url(#6d21c2a63b)"><path fill="#328281" d="M 15.199219 9.226562 C 14.289062 10.164062 13.257812 10.566406 13.246094 10.128906 C 13.226562 9.539062 14.894531 8.277344 15.65625 8.179688 C 16.203125 8.183594 15.210938 9.214844 15.199219 9.226562 " fill-opacity="1" fill-rule="nonzero"/></g></g></g><g clip-path="url(#bef35ff03d)"><g clip-path="url(#e4952ca15d)"><g clip-path="url(#af438d3cab)"><path fill="#328281" d="M 18.164062 9.148438 C 17.523438 10.167969 16.035156 10.507812 15.847656 9.859375 C 15.664062 9.234375 16.902344 8.15625 17.882812 8.089844 C 18.644531 8.113281 18.34375 8.859375 18.164062 9.148438 " fill-opacity="1" fill-rule="nonzero"/></g></g></g><g clip-path="url(#ed287b1deb)"><g clip-path="url(#be9884a9f0)"><g clip-path="url(#5cf2d872b2)"><path fill="#328281" d="M 21.566406 9.15625 C 21.347656 10.242188 19.71875 10.480469 19.28125 9.730469 C 18.902344 9.085938 19.722656 8.109375 20.675781 8.070312 C 21.429688 8.109375 21.648438 8.730469 21.566406 9.15625 " fill-opacity="1" fill-rule="nonzero"/></g></g></g><g clip-path="url(#4f69094ec2)"><g clip-path="url(#3ce0748fda)"><g clip-path="url(#ce6b07affa)"><path fill="#328281" d="M 24.964844 9.242188 C 25.179688 10.132812 24.058594 10.496094 23.257812 10.007812 C 22.371094 9.46875 22.515625 8.363281 23.285156 8.152344 C 23.390625 8.125 23.488281 8.125 23.566406 8.121094 C 24.351562 8.179688 24.867188 8.824219 24.964844 9.242188 " fill-opacity="1" fill-rule="nonzero"/></g></g></g><g clip-path="url(#86f96528b2)"><g clip-path="url(#fb31117cbe)"><g clip-path="url(#86c03ef3e8)"><path fill="#328281" d="M 28.019531 9.398438 C 28.441406 10.058594 28.109375 10.527344 27.351562 10.34375 C 26.207031 10.0625 25.398438 8.613281 25.980469 8.289062 C 26.078125 8.234375 26.171875 8.234375 26.269531 8.234375 C 26.941406 8.304688 27.699219 8.890625 28.019531 9.398438 " fill-opacity="1" fill-rule="nonzero"/></g></g></g><g clip-path="url(#bb49f96054)"><g clip-path="url(#0b87c356b8)"><g clip-path="url(#9e1e4ca6f7)"><path fill="#328281" d="M 30.375 9.609375 C 30.917969 10.1875 30.988281 10.640625 30.539062 10.597656 C 29.621094 10.511719 27.988281 8.660156 28.339844 8.421875 C 28.375 8.394531 28.4375 8.394531 28.484375 8.398438 C 29.019531 8.484375 29.894531 9.09375 30.375 9.609375 " fill-opacity="1" fill-rule="nonzero"/></g></g></g><g clip-path="url(#3357c24f24)"><g clip-path="url(#28e5d635e3)"><g clip-path="url(#4539ac6958)"><path fill="#328281" d="M 31.566406 9.839844 C 31.992188 10.230469 32.4375 10.710938 32.414062 10.847656 C 32.144531 11.007812 29.835938 8.632812 29.828125 8.597656 C 29.835938 8.597656 29.851562 8.59375 29.859375 8.59375 C 30.085938 8.667969 30.847656 9.179688 31.566406 9.839844 " fill-opacity="1" fill-rule="nonzero"/></g></g></g><g clip-path="url(#6912725f65)"><g clip-path="url(#4444ca30d0)"><g clip-path="url(#d10a1fbe67)"><path fill="#328281" d="M 10.046875 12.542969 C 9.167969 13.859375 9.050781 13.953125 9.007812 13.988281 L 8.996094 13.976562 C 9.007812 13.933594 9.019531 13.898438 9.09375 13.757812 L 9.097656 13.753906 C 9.863281 12.464844 9.863281 12.464844 10.320312 11.863281 L 10.804688 11.261719 C 10.902344 11.148438 10.925781 11.128906 10.957031 11.105469 L 10.964844 11.113281 C 10.945312 11.167969 10.910156 11.253906 10.046875 12.542969 " fill-opacity="1" fill-rule="nonzero"/></g></g></g><g clip-path="url(#0cd88d21f9)"><g clip-path="url(#d9116b9800)"><g clip-path="url(#57a1d1324d)"><path fill="#328281" d="M 11.789062 12.316406 C 11.128906 13.378906 10.21875 14.050781 10.082031 13.578125 C 9.894531 12.953125 11.308594 11.035156 12.070312 10.882812 C 12.515625 10.878906 12.132812 11.761719 11.789062 12.316406 " fill-opacity="1" fill-rule="nonzero"/></g></g></g><g clip-path="url(#ba08b9b27b)"><g clip-path="url(#bc901d77f6)"><g clip-path="url(#d2cf39090b)"><path fill="#328281" d="M 14.96875 12.167969 C 14.375 13.371094 12.804688 13.992188 12.527344 13.128906 C 12.277344 12.351562 13.390625 10.832031 14.519531 10.71875 C 15.308594 10.738281 15.257812 11.574219 14.96875 12.167969 " fill-opacity="1" fill-rule="nonzero"/></g></g></g><g clip-path="url(#71a264fc5b)"><g clip-path="url(#69afff53ca)"><g clip-path="url(#cb1207b976)"><path fill="#328281" d="M 19.15625 12.121094 C 18.800781 13.390625 16.898438 13.921875 16.328125 12.910156 C 15.871094 12.097656 16.761719 10.714844 18.105469 10.644531 C 19.160156 10.6875 19.308594 11.574219 19.15625 12.121094 " fill-opacity="1" fill-rule="nonzero"/></g></g></g><g clip-path="url(#84309264e5)"><g clip-path="url(#b6842a92d2)"><g clip-path="url(#206cce4ff6)"><path fill="#328281" d="M 23.570312 12.183594 C 23.515625 13.410156 21.835938 13.941406 20.921875 13.015625 C 20.121094 12.199219 20.660156 10.707031 22.085938 10.667969 C 23.152344 10.734375 23.59375 11.59375 23.570312 12.183594 " fill-opacity="1" fill-rule="nonzero"/></g></g></g><g clip-path="url(#df0a13a5e4)"><g clip-path="url(#12479a77bc)"><g clip-path="url(#eb182e12fb)"><path fill="#328281" d="M 27.761719 12.339844 C 27.972656 13.4375 26.800781 14 25.738281 13.316406 C 24.535156 12.535156 24.714844 10.972656 25.753906 10.796875 C 25.828125 10.785156 25.929688 10.78125 26.007812 10.78125 C 27.03125 10.875 27.648438 11.75 27.761719 12.339844 " fill-opacity="1" fill-rule="nonzero"/></g></g></g><g clip-path="url(#0acaebeaec)"><g clip-path="url(#c59aa140bf)"><g clip-path="url(#635052bf66)"><path fill="#328281" d="M 31.285156 12.578125 C 31.652344 13.496094 31.140625 14.082031 30.273438 13.738281 C 28.949219 13.207031 28.363281 11.308594 29.167969 11.007812 C 29.269531 10.972656 29.375 10.972656 29.457031 10.972656 C 30.316406 11.085938 31.054688 11.996094 31.285156 12.578125 " fill-opacity="1" fill-rule="nonzero"/></g></g></g><g clip-path="url(#8cc47ca985)"><g clip-path="url(#49f51d9962)"><g clip-path="url(#16f5c8640b)"><path fill="#328281" d="M 33.628906 12.871094 C 34.078125 13.6875 34.058594 14.257812 33.589844 14.113281 C 32.710938 13.84375 31.3125 11.449219 31.90625 11.238281 C 31.9375 11.222656 31.988281 11.226562 32.023438 11.226562 C 32.578125 11.355469 33.296875 12.265625 33.628906 12.871094 " fill-opacity="1" fill-rule="nonzero"/></g></g></g><g clip-path="url(#600f48ffee)"><g clip-path="url(#b6c324a2a9)"><g clip-path="url(#3529df8ea9)"><path fill="#328281" d="M 34.976562 14.304688 C 35.011719 14.382812 35.019531 14.410156 35.027344 14.433594 L 35.015625 14.445312 C 34.8125 14.265625 33.246094 11.730469 33.160156 11.507812 L 33.167969 11.496094 C 33.199219 11.523438 33.210938 11.535156 33.289062 11.632812 L 33.773438 12.273438 C 34.589844 13.527344 34.589844 13.527344 34.925781 14.207031 L 34.949219 14.25 C 34.957031 14.265625 34.96875 14.289062 34.976562 14.304688 " fill-opacity="1" fill-rule="nonzero"/></g></g></g><g clip-path="url(#4280b28e86)"><g clip-path="url(#02040dda3a)"><g clip-path="url(#b02923744e)"><path fill="#328281" d="M 9.152344 15.980469 C 8.765625 17.144531 8.207031 17.929688 8.042969 17.535156 C 7.8125 16.976562 8.636719 14.484375 9.261719 14.261719 C 9.601562 14.253906 9.375 15.3125 9.152344 15.980469 " fill-opacity="1" fill-rule="nonzero"/></g></g></g><g clip-path="url(#7610dbc867)"><g clip-path="url(#6ce0f78528)"><g clip-path="url(#4573ff9182)"><path fill="#328281" d="M 11.957031 15.765625 C 11.535156 17.132812 10.332031 17.878906 9.914062 17.027344 C 9.484375 16.15625 10.308594 14.1875 11.394531 14.03125 C 12.148438 14.039062 12.175781 15.050781 11.957031 15.765625 " fill-opacity="1" fill-rule="nonzero"/></g></g></g><g clip-path="url(#ad04cd81a2)"><g clip-path="url(#b155efd227)"><g clip-path="url(#9f46103af0)"><path fill="#328281" d="M 16.265625 15.648438 C 15.90625 17.15625 13.984375 17.792969 13.332031 16.617188 C 12.78125 15.628906 13.609375 13.992188 15.054688 13.882812 C 16.238281 13.921875 16.425781 14.988281 16.265625 15.648438 " fill-opacity="1" fill-rule="nonzero"/></g></g></g><g clip-path="url(#93d9867f14)"><g clip-path="url(#399b94a5da)"><g clip-path="url(#e5e0c50fd2)"><path fill="#328281" d="M 21.210938 15.660156 C 21 17.183594 18.988281 17.757812 18.09375 16.550781 C 17.363281 15.566406 18.082031 13.921875 19.644531 13.855469 C 20.886719 13.921875 21.308594 14.953125 21.210938 15.660156 " fill-opacity="1" fill-rule="nonzero"/></g></g></g><g clip-path="url(#eaa96d1a1f)"><g clip-path="url(#c8f676f3f8)"><g clip-path="url(#46a3f93bcf)"><path fill="#328281" d="M 30.589844 16.011719 C 30.707031 17.382812 29.359375 17.980469 28.304688 17.027344 C 27.183594 16.015625 27.429688 14.195312 28.699219 14.121094 C 28.742188 14.117188 28.796875 14.121094 28.839844 14.121094 C 29.949219 14.246094 30.53125 15.300781 30.589844 16.011719 " fill-opacity="1" fill-rule="nonzero"/></g></g></g><g clip-path="url(#aa1d0916b1)"><g clip-path="url(#29e07eda06)"><g clip-path="url(#3ea27d5ca8)"><path fill="#328281" d="M 7.722656 20.414062 C 7.703125 21.066406 7.636719 22.167969 7.496094 22.183594 C 7.449219 22.140625 7.394531 22.003906 7.363281 21.335938 L 7.351562 20.421875 L 7.410156 19.3125 C 7.480469 18.585938 7.550781 18.511719 7.578125 18.480469 L 7.597656 18.480469 C 7.734375 18.609375 7.738281 19.757812 7.722656 20.414062 " fill-opacity="1" fill-rule="nonzero"/></g></g></g><g clip-path="url(#c90948a6c3)"><g clip-path="url(#ee0850311d)"><g clip-path="url(#fe5f8cdbee)"><path fill="#328281" d="M 9.78125 20.148438 C 9.703125 21.460938 9.070312 22.28125 8.578125 21.714844 C 7.917969 20.960938 8.089844 18.402344 9.019531 18.195312 C 9.625 18.199219 9.832031 19.339844 9.78125 20.148438 " fill-opacity="1" fill-rule="nonzero"/></g></g></g><g clip-path="url(#a8061b67cd)"><g clip-path="url(#7299dfaa80)"><g clip-path="url(#f2bd7ea112)"><path fill="#328281" d="M 13.539062 19.972656 C 13.394531 21.5 11.953125 22.242188 11.164062 21.1875 C 10.386719 20.152344 10.847656 18.128906 12.183594 17.984375 C 13.246094 18.011719 13.617188 19.164062 13.539062 19.972656 " fill-opacity="1" fill-rule="nonzero"/></g></g></g><g clip-path="url(#67f062b758)"><g clip-path="url(#358fe19fd1)"><g clip-path="url(#da3cb38707)"><path fill="#328281" d="M 18.492188 19.917969 C 18.3125 21.539062 16.386719 22.171875 15.417969 20.929688 C 14.570312 19.835938 15.183594 17.984375 16.816406 17.886719 C 18.191406 17.949219 18.574219 19.164062 18.492188 19.917969 " fill-opacity="1" fill-rule="nonzero"/></g></g></g><g clip-path="url(#087ec58393)"><g clip-path="url(#ad6d9086b9)"><g clip-path="url(#af40530c66)"><path fill="#328281" d="M 23.710938 19.988281 C 23.523438 21.621094 21.527344 22.207031 20.523438 20.925781 C 19.652344 19.8125 20.285156 17.972656 21.964844 17.917969 C 23.398438 18.015625 23.796875 19.242188 23.710938 19.988281 " fill-opacity="1" fill-rule="nonzero"/></g></g></g><g clip-path="url(#1aa53785f6)"><g clip-path="url(#66f060053f)"><g clip-path="url(#957dcf1e98)"><path fill="#328281" d="M 9.183594 24.863281 C 9.425781 25.804688 9.410156 26.667969 9.011719 26.402344 C 8.394531 25.996094 7.539062 23.28125 8.148438 23.03125 C 8.539062 23.027344 8.988281 24.101562 9.183594 24.863281 " fill-opacity="1" fill-rule="nonzero"/></g></g></g><g clip-path="url(#dcc0b70495)"><g clip-path="url(#c09635f6f8)"><g clip-path="url(#a45990759e)"><path fill="#328281" d="M 11.945312 24.652344 C 12.128906 25.839844 11.515625 26.558594 10.753906 26.050781 C 9.652344 25.320312 9.355469 23.039062 10.332031 22.796875 C 10.363281 22.789062 10.410156 22.785156 10.441406 22.78125 C 11.28125 22.796875 11.828125 23.882812 11.945312 24.652344 " fill-opacity="1" fill-rule="nonzero"/></g></g></g><g clip-path="url(#804228f763)"><g clip-path="url(#5510a201f5)"><g clip-path="url(#edb9277cca)"><path fill="#328281" d="M 16.195312 24.539062 C 16.230469 25.945312 14.828125 26.570312 13.769531 25.613281 C 12.78125 24.71875 12.757812 22.753906 14.378906 22.625 C 15.597656 22.667969 16.171875 23.769531 16.195312 24.539062 " fill-opacity="1" fill-rule="nonzero"/></g></g></g><g clip-path="url(#86e4af8a08)"><g clip-path="url(#d40e5f9f36)"><g clip-path="url(#4bd8cd99ed)"><path fill="#328281" d="M 21.066406 24.550781 C 20.90625 26.125 19.015625 26.597656 18.042969 25.304688 C 17.246094 24.246094 17.769531 22.664062 19.3125 22.589844 C 20.648438 22.667969 21.140625 23.78125 21.066406 24.550781 " fill-opacity="1" fill-rule="nonzero"/></g></g></g><g clip-path="url(#43f6d1af12)"><g clip-path="url(#dae5578357)"><g clip-path="url(#ce4bd3eee3)"><path fill="#328281" d="M 10.238281 28.777344 C 10.757812 29.585938 11 30.035156 10.953125 30.105469 C 10.652344 30.128906 8.851562 27.441406 9.011719 27.203125 C 9.203125 27.1875 10.066406 28.511719 10.238281 28.777344 " fill-opacity="1" fill-rule="nonzero"/></g></g></g><g clip-path="url(#53aad2c566)"><g clip-path="url(#4222132c4f)"><g clip-path="url(#898eb6c085)"><path fill="#328281" d="M 11.910156 28.5625 C 12.285156 29.308594 12.382812 30.003906 11.898438 29.875 C 10.980469 29.636719 9.636719 27.398438 10.167969 26.996094 C 10.199219 26.96875 10.253906 26.957031 10.292969 26.945312 C 10.816406 26.949219 11.515625 27.78125 11.910156 28.5625 " fill-opacity="1" fill-rule="nonzero"/></g></g></g><g clip-path="url(#911327b312)"><g clip-path="url(#5277b3a063)"><g clip-path="url(#47d74a8f64)"><path fill="#328281" d="M 14.964844 28.417969 C 15.246094 29.394531 14.71875 30.109375 13.71875 29.523438 C 12.429688 28.765625 11.949219 26.964844 12.984375 26.773438 C 13.023438 26.765625 13.070312 26.765625 13.105469 26.761719 C 14.0625 26.785156 14.765625 27.742188 14.964844 28.417969 " fill-opacity="1" fill-rule="nonzero"/></g></g></g><g clip-path="url(#5d35f319f5)"><g clip-path="url(#a5e9c47d2b)"><g clip-path="url(#c2d82cbcc2)"><path fill="#328281" d="M 13.398438 31.683594 C 14.066406 32.324219 14.351562 32.664062 14.238281 32.691406 C 13.777344 32.804688 11.359375 30.679688 11.648438 30.417969 C 11.65625 30.410156 11.667969 30.40625 11.679688 30.402344 C 12.023438 30.398438 12.996094 31.296875 13.398438 31.683594 " fill-opacity="1" fill-rule="nonzero"/></g></g></g><g clip-path="url(#7ab67d35e2)"><g clip-path="url(#c6e710ca63)"><g clip-path="url(#90eb551cb3)"><path fill="#328281" d="M 15.214844 31.542969 C 15.511719 31.9375 15.890625 32.597656 15.417969 32.554688 C 14.566406 32.484375 12.703125 30.789062 13.171875 30.296875 C 13.222656 30.242188 13.296875 30.230469 13.359375 30.222656 C 13.953125 30.230469 14.738281 30.914062 15.214844 31.542969 " fill-opacity="1" fill-rule="nonzero"/></g></g></g><g clip-path="url(#af5411fccd)"><g clip-path="url(#92251e77e1)"><g clip-path="url(#52c86433af)"><path fill="#328281" d="M 18.003906 31.46875 C 18.285156 32.230469 17.941406 32.761719 17 32.304688 C 15.789062 31.71875 15.183594 30.382812 16.019531 30.136719 C 16.085938 30.117188 16.175781 30.109375 16.246094 30.105469 C 17.179688 30.136719 17.808594 30.9375 18.003906 31.46875 " fill-opacity="1" fill-rule="nonzero"/></g></g></g><g clip-path="url(#63f61fb5c4)"><g clip-path="url(#59f65b3de4)"><g clip-path="url(#13f1ebc45e)"><path fill="#328281" d="M 21.203125 31.476562 C 21.15625 32.460938 20.085938 32.859375 19.261719 31.890625 C 18.628906 31.140625 18.804688 30.132812 19.863281 30.082031 C 20.742188 30.132812 21.234375 30.832031 21.203125 31.476562 " fill-opacity="1" fill-rule="nonzero"/></g></g></g><g clip-path="url(#e3458b4666)"><g clip-path="url(#27d1f00030)"><g clip-path="url(#5166da3073)"><path fill="#328281" d="M 17.148438 33.882812 C 18.144531 34.445312 18.144531 34.445312 18.175781 34.476562 C 18.171875 34.480469 18.167969 34.488281 18.164062 34.492188 C 17.425781 34.484375 14.90625 33.203125 15.226562 33.003906 C 15.238281 33 15.25 33 15.261719 32.996094 C 15.574219 32.996094 16.304688 33.410156 17.148438 33.882812 " fill-opacity="1" fill-rule="nonzero"/></g></g></g><g clip-path="url(#fc44bb87fd)"><g clip-path="url(#554aa7a6b2)"><g clip-path="url(#2bcfaca1f5)"><path fill="#328281" d="M 18.550781 33.816406 C 19.246094 34.425781 19.074219 34.433594 19.015625 34.4375 C 18.433594 34.46875 16.34375 33.292969 16.683594 32.941406 C 16.71875 32.90625 16.785156 32.898438 16.832031 32.890625 C 17.460938 32.910156 18.304688 33.605469 18.550781 33.816406 " fill-opacity="1" fill-rule="nonzero"/></g></g></g><g clip-path="url(#2d9163c973)"><g clip-path="url(#e0d6c9ba0b)"><g clip-path="url(#6fa51be5ea)"><path fill="#328281" d="M 20.390625 33.796875 C 20.472656 34.003906 20.679688 34.648438 19.886719 34.308594 C 18.964844 33.914062 18.414062 33.117188 18.90625 32.886719 C 18.984375 32.851562 19.070312 32.847656 19.132812 32.839844 C 19.75 32.871094 20.21875 33.359375 20.390625 33.796875 " fill-opacity="1" fill-rule="nonzero"/></g></g></g><g clip-path="url(#bfeaa982de)"><g clip-path="url(#016235c1ed)"><g clip-path="url(#7f67a4a05e)"><path fill="#328281" d="M 22.335938 33.824219 C 22.074219 34.519531 21.371094 34.671875 21.03125 33.875 C 20.832031 33.402344 21.050781 32.882812 21.691406 32.855469 C 22.304688 32.902344 22.5 33.382812 22.335938 33.824219 " fill-opacity="1" fill-rule="nonzero"/></g></g></g><g clip-path="url(#6c10c0a4bd)"><g clip-path="url(#4ae28115a1)"><g clip-path="url(#8557e13133)"><path fill="#328281" d="M 24.179688 33.894531 C 23.96875 34.082031 22.773438 34.882812 22.84375 34.167969 C 22.894531 33.671875 23.449219 32.941406 24.207031 32.929688 C 24.773438 32.988281 24.644531 33.484375 24.179688 33.894531 " fill-opacity="1" fill-rule="nonzero"/></g></g></g><g clip-path="url(#56f747783e)"><g clip-path="url(#4ad29bf7c8)"><g clip-path="url(#4bfcc95b34)"><path fill="#328281" d="M 25.730469 34 C 25.121094 34.328125 24.132812 34.652344 24.171875 34.472656 C 24.203125 34.304688 25.589844 33.050781 26.421875 33.054688 C 26.808594 33.113281 26.503906 33.472656 26.207031 33.699219 C 26.074219 33.796875 25.914062 33.898438 25.730469 34 " fill-opacity="1" fill-rule="nonzero"/></g></g></g><g fill="#47b3b1" fill-opacity="1"><g transform="translate(26.543237, 30.731813)"><g><path d="M 5.140625 -10.96875 L 0.421875 -10.96875 L 0.421875 0 C 0.941406 0 4.558594 0 5.140625 0 C 9.714844 0 10.546875 -3.355469 10.546875 -5.46875 C 10.546875 -7.585938 9.777344 -10.96875 5.140625 -10.96875 Z M 5.140625 -2.164062 C 4.042969 -2.164062 3.226562 -2.164062 2.804688 -2.164062 L 2.804688 -8.792969 C 2.804688 -8.792969 4.136719 -8.792969 5.140625 -8.792969 C 7.601562 -8.792969 8.070312 -6.707031 8.070312 -5.46875 C 8.070312 -4.292969 7.585938 -2.164062 5.140625 -2.164062 Z M 5.140625 -2.164062 "/></g></g></g><g fill="#47b3b1" fill-opacity="1"><g transform="translate(37.543365, 30.731813)"><g><path d="M 2.804688 0 L 2.804688 -10.96875 L 0.421875 -10.96875 L 0.421875 0 Z M 2.804688 0 "/></g></g></g><g fill="#47b3b1" fill-opacity="1"><g transform="translate(40.786989, 30.731813)"><g><path d="M 6.050781 -6.363281 L 6.050781 -4.121094 L 9.183594 -4.121094 C 8.855469 -3.070312 7.929688 -2.429688 6.113281 -2.429688 C 4.246094 -2.429688 2.789062 -3.386719 2.789062 -5.5625 C 2.789062 -7.742188 4.246094 -8.714844 6.113281 -8.714844 C 7.617188 -8.714844 8.539062 -8.289062 8.996094 -7.460938 L 11.613281 -7.460938 C 11.1875 -9.558594 8.964844 -11.140625 6.113281 -11.140625 C 2.960938 -11.140625 0.421875 -9.167969 0.421875 -5.5625 C 0.421875 -1.894531 2.960938 0 6.113281 0 C 7.726562 0 8.777344 -0.800781 9.167969 -1.785156 L 9.292969 -1.785156 L 9.292969 -0.078125 L 11.675781 -0.078125 L 11.675781 -6.363281 Z M 6.050781 -6.363281 "/></g></g></g><g fill="#47b3b1" fill-opacity="1"><g transform="translate(52.899673, 30.731813)"><g><path d="M 2.804688 0 L 2.804688 -10.96875 L 0.421875 -10.96875 L 0.421875 0 Z M 2.804688 0 "/></g></g></g><g fill="#8a9ebb" fill-opacity="1"><g transform="translate(9.156601, 42.788329)"><g><path d="M 0.160156 -4.113281 L 0.160156 0 L 1.050781 0 L 1.050781 -1.652344 L 3.539062 -1.652344 L 3.539062 -2.457031 L 1.050781 -2.457031 L 1.050781 -3.304688 L 3.664062 -3.304688 L 3.664062 -4.113281 Z M 0.160156 -4.113281 "/></g></g></g><g fill="#8a9ebb" fill-opacity="1"><g transform="translate(12.989266, 42.788329)"><g><path d="M 2.898438 -2.808594 C 2.675781 -3.105469 2.304688 -3.296875 1.691406 -3.296875 C 0.300781 -3.296875 0.152344 -2.128906 0.152344 -1.644531 C 0.152344 -1.203125 0.304688 0 1.6875 0 C 2.308594 0 2.6875 -0.171875 2.910156 -0.457031 L 2.9375 -0.457031 L 2.9375 0 L 3.832031 0 L 3.832031 -3.296875 L 2.9375 -3.296875 L 2.9375 -2.808594 Z M 1.953125 -0.765625 C 1.097656 -0.765625 1.003906 -1.410156 1.003906 -1.644531 C 1.003906 -1.90625 1.09375 -2.527344 1.953125 -2.527344 C 2.722656 -2.527344 2.878906 -2.09375 2.878906 -1.644531 C 2.878906 -1.144531 2.722656 -0.765625 1.953125 -0.765625 Z M 1.953125 -0.765625 "/></g></g></g><g fill="#8a9ebb" fill-opacity="1"><g transform="translate(16.992405, 42.788329)"><g><path d="M 2.308594 -3.296875 C 1.699219 -3.296875 1.324219 -3.105469 1.097656 -2.808594 L 1.050781 -2.808594 L 1.050781 -4.242188 L 0.160156 -4.242188 L 0.160156 0 L 1.050781 0 L 1.050781 -0.457031 L 1.09375 -0.457031 C 1.316406 -0.171875 1.691406 0 2.308594 0 C 3.699219 0 3.851562 -1.203125 3.851562 -1.644531 C 3.851562 -2.128906 3.703125 -3.296875 2.308594 -3.296875 Z M 2.050781 -0.765625 C 1.277344 -0.765625 1.117188 -1.144531 1.117188 -1.644531 C 1.117188 -2.09375 1.277344 -2.527344 2.050781 -2.527344 C 2.902344 -2.527344 2.996094 -1.90625 2.996094 -1.644531 C 2.996094 -1.410156 2.902344 -0.765625 2.050781 -0.765625 Z M 2.050781 -0.765625 "/></g></g></g><g fill="#8a9ebb" fill-opacity="1"><g transform="translate(21.007302, 42.788329)"><g><path d="M 2.0625 -3.296875 C 1.492188 -3.296875 1.292969 -3.128906 1.105469 -2.808594 L 1.050781 -2.808594 L 1.050781 -3.296875 L 0.160156 -3.296875 L 0.160156 0 L 1.050781 0 L 1.050781 -1.476562 C 1.050781 -1.921875 1.246094 -2.441406 1.910156 -2.441406 C 2.191406 -2.441406 2.421875 -2.390625 2.503906 -2.367188 L 2.644531 -3.210938 C 2.492188 -3.246094 2.296875 -3.296875 2.0625 -3.296875 Z M 2.0625 -3.296875 "/></g></g></g><g fill="#8a9ebb" fill-opacity="1"><g transform="translate(23.81714, 42.788329)"><g><path d="M 1.046875 0 L 1.046875 -3.273438 L 0.160156 -3.273438 L 0.160156 0 Z M 1.046875 -3.507812 L 1.046875 -4.308594 L 0.160156 -4.308594 L 0.160156 -3.507812 Z M 1.046875 -3.507812 "/></g></g></g><g fill="#8a9ebb" fill-opacity="1"><g transform="translate(25.022198, 42.788329)"><g><path d="M 2.75 -1.234375 C 2.6875 -1.003906 2.480469 -0.800781 1.917969 -0.800781 C 1.335938 -0.800781 1.027344 -1.0625 1.027344 -1.652344 C 1.027344 -2.210938 1.335938 -2.5 1.917969 -2.5 C 2.464844 -2.5 2.679688 -2.308594 2.757812 -2.0625 L 3.632812 -2.0625 C 3.554688 -2.84375 2.863281 -3.304688 1.917969 -3.304688 C 0.945312 -3.304688 0.160156 -2.714844 0.160156 -1.652344 C 0.160156 -0.558594 0.945312 0 1.917969 0 C 2.863281 0 3.5625 -0.441406 3.632812 -1.234375 Z M 2.75 -1.234375 "/></g></g></g><g fill="#8a9ebb" fill-opacity="1"><g transform="translate(28.813716, 42.788329)"><g><path d="M 2.898438 -2.808594 C 2.675781 -3.105469 2.304688 -3.296875 1.691406 -3.296875 C 0.300781 -3.296875 0.152344 -2.128906 0.152344 -1.644531 C 0.152344 -1.203125 0.304688 0 1.6875 0 C 2.308594 0 2.6875 -0.171875 2.910156 -0.457031 L 2.9375 -0.457031 L 2.9375 0 L 3.832031 0 L 3.832031 -3.296875 L 2.9375 -3.296875 L 2.9375 -2.808594 Z M 1.953125 -0.765625 C 1.097656 -0.765625 1.003906 -1.410156 1.003906 -1.644531 C 1.003906 -1.90625 1.09375 -2.527344 1.953125 -2.527344 C 2.722656 -2.527344 2.878906 -2.09375 2.878906 -1.644531 C 2.878906 -1.144531 2.722656 -0.765625 1.953125 -0.765625 Z M 1.953125 -0.765625 "/></g></g></g><g fill="#8a9ebb" fill-opacity="1"><g transform="translate(32.816854, 42.788329)"><g><path d="M 2.199219 -3.296875 C 1.605469 -3.296875 1.304688 -3.105469 1.09375 -2.808594 L 1.050781 -2.808594 L 1.050781 -3.296875 L 0.160156 -3.296875 L 0.160156 0 L 1.050781 0 L 1.050781 -1.585938 C 1.050781 -2.035156 1.164062 -2.527344 1.941406 -2.527344 C 2.792969 -2.527344 2.738281 -1.90625 2.738281 -1.644531 L 2.738281 0 L 3.625 0 L 3.625 -1.644531 C 3.625 -2.128906 3.589844 -3.296875 2.199219 -3.296875 Z M 2.199219 -3.296875 "/></g></g></g><g fill="#8a9ebb" fill-opacity="1"><g transform="translate(36.608372, 42.788329)"><g><path d="M 1.492188 -2.535156 L 2.5625 -2.535156 L 2.5625 -3.285156 L 1.492188 -3.285156 L 1.492188 -4.238281 L 0.59375 -4.238281 L 0.59375 -3.285156 L 0.160156 -3.285156 L 0.160156 -2.535156 L 0.59375 -2.535156 L 0.59375 -1.210938 C 0.59375 -0.734375 0.59375 0 1.492188 0 C 2.386719 0 2.5625 -0.0585938 2.5625 -0.0585938 L 2.5625 -0.929688 C 1.703125 -0.882812 1.492188 -0.816406 1.492188 -1.292969 Z M 1.492188 -2.535156 "/></g></g></g><g fill="#8a9ebb" fill-opacity="1"><g transform="translate(39.330039, 42.788329)"><g/></g></g><g fill="#8a9ebb" fill-opacity="1"><g transform="translate(41.240493, 42.788329)"><g><path d="M 2.957031 -4.242188 L 2.957031 -2.808594 L 2.902344 -2.808594 C 2.679688 -3.105469 2.308594 -3.296875 1.699219 -3.296875 C 0.304688 -3.296875 0.160156 -2.128906 0.160156 -1.644531 C 0.160156 -1.203125 0.3125 0 1.691406 0 C 2.316406 0 2.691406 -0.171875 2.914062 -0.457031 L 2.957031 -0.457031 L 2.957031 0 L 3.851562 0 L 3.851562 -4.242188 Z M 1.957031 -0.765625 C 1.105469 -0.765625 1.011719 -1.410156 1.011719 -1.644531 C 1.011719 -1.90625 1.097656 -2.527344 1.957031 -2.527344 C 2.726562 -2.527344 2.886719 -2.09375 2.886719 -1.644531 C 2.886719 -1.144531 2.726562 -0.765625 1.957031 -0.765625 Z M 1.957031 -0.765625 "/></g></g></g><g fill="#8a9ebb" fill-opacity="1"><g transform="translate(45.255389, 42.788329)"><g><path d="M 3.65625 -1.441406 L 3.691406 -1.441406 C 3.738281 -1.894531 3.679688 -2.585938 3.046875 -3.019531 C 3.046875 -3.019531 3.046875 -3.015625 3.046875 -3.015625 C 2.769531 -3.210938 2.390625 -3.328125 1.929688 -3.328125 C 0.816406 -3.328125 0.160156 -2.738281 0.160156 -1.664062 C 0.160156 -0.5625 0.800781 0 1.929688 0 C 3.007812 0 3.585938 -0.433594 3.675781 -1.144531 L 2.808594 -1.144531 C 2.726562 -0.929688 2.464844 -0.78125 1.929688 -0.78125 C 1.351562 -0.78125 1.085938 -1 1.023438 -1.441406 Z M 1.929688 -2.546875 C 2.5625 -2.546875 2.726562 -2.273438 2.796875 -2.027344 L 1.058594 -2.027344 C 1.164062 -2.363281 1.433594 -2.546875 1.929688 -2.546875 Z M 1.929688 -2.546875 "/></g></g></g><g fill="#8a9ebb" fill-opacity="1"><g transform="translate(49.117445, 42.788329)"><g/></g></g><g fill="#8a9ebb" fill-opacity="1"><g transform="translate(51.027898, 42.788329)"><g><path d="M 1.910156 -2 L 1.835938 -2.003906 C 1.257812 -2.09375 1.15625 -2.175781 1.15625 -2.320312 C 1.15625 -2.421875 1.265625 -2.605469 1.761719 -2.605469 C 2.28125 -2.605469 2.503906 -2.464844 2.503906 -2.203125 L 2.503906 -2.175781 L 3.414062 -2.175781 L 3.414062 -2.203125 C 3.414062 -2.710938 3.128906 -3.316406 1.761719 -3.316406 C 0.492188 -3.316406 0.230469 -2.769531 0.230469 -2.308594 C 0.230469 -1.652344 0.816406 -1.441406 1.761719 -1.316406 C 1.808594 -1.3125 1.859375 -1.304688 1.90625 -1.300781 C 2.261719 -1.257812 2.582031 -1.210938 2.582031 -0.964844 C 2.582031 -0.746094 2.238281 -0.699219 1.882812 -0.699219 C 1.289062 -0.699219 1.074219 -0.828125 1.074219 -1.109375 L 1.074219 -1.140625 L 0.160156 -1.140625 L 0.160156 -1.074219 C 0.152344 -0.90625 0.152344 -0.628906 0.382812 -0.398438 C 0.648438 -0.136719 1.15625 0 1.90625 0 C 2.914062 0 3.503906 -0.160156 3.503906 -0.976562 C 3.503906 -1.757812 2.65625 -1.886719 1.910156 -2 Z M 1.910156 -2 "/></g></g></g><g fill="#8a9ebb" fill-opacity="1"><g transform="translate(54.690097, 42.788329)"><g><path d="M 1.046875 0 L 1.046875 -3.273438 L 0.160156 -3.273438 L 0.160156 0 Z M 1.046875 -3.507812 L 1.046875 -4.308594 L 0.160156 -4.308594 L 0.160156 -3.507812 Z M 1.046875 -3.507812 "/></g></g></g><g fill="#8a9ebb" fill-opacity="1"><g transform="translate(55.895156, 42.788329)"><g><path d="M 1.492188 -2.535156 L 2.5625 -2.535156 L 2.5625 -3.285156 L 1.492188 -3.285156 L 1.492188 -4.238281 L 0.59375 -4.238281 L 0.59375 -3.285156 L 0.160156 -3.285156 L 0.160156 -2.535156 L 0.59375 -2.535156 L 0.59375 -1.210938 C 0.59375 -0.734375 0.59375 0 1.492188 0 C 2.386719 0 2.5625 -0.0585938 2.5625 -0.0585938 L 2.5625 -0.929688 C 1.703125 -0.882812 1.492188 -0.816406 1.492188 -1.292969 Z M 1.492188 -2.535156 "/></g></g></g><g fill="#8a9ebb" fill-opacity="1"><g transform="translate(58.616823, 42.788329)"><g><path d="M 3.65625 -1.441406 L 3.691406 -1.441406 C 3.738281 -1.894531 3.679688 -2.585938 3.046875 -3.019531 C 3.046875 -3.019531 3.046875 -3.015625 3.046875 -3.015625 C 2.769531 -3.210938 2.390625 -3.328125 1.929688 -3.328125 C 0.816406 -3.328125 0.160156 -2.738281 0.160156 -1.664062 C 0.160156 -0.5625 0.800781 0 1.929688 0 C 3.007812 0 3.585938 -0.433594 3.675781 -1.144531 L 2.808594 -1.144531 C 2.726562 -0.929688 2.464844 -0.78125 1.929688 -0.78125 C 1.351562 -0.78125 1.085938 -1 1.023438 -1.441406 Z M 1.929688 -2.546875 C 2.5625 -2.546875 2.726562 -2.273438 2.796875 -2.027344 L 1.058594 -2.027344 C 1.164062 -2.363281 1.433594 -2.546875 1.929688 -2.546875 Z M 1.929688 -2.546875 "/></g></g></g><g fill="#8a9ebb" fill-opacity="1"><g transform="translate(62.478879, 42.788329)"><g><path d="M 1.910156 -2 L 1.835938 -2.003906 C 1.257812 -2.09375 1.15625 -2.175781 1.15625 -2.320312 C 1.15625 -2.421875 1.265625 -2.605469 1.761719 -2.605469 C 2.28125 -2.605469 2.503906 -2.464844 2.503906 -2.203125 L 2.503906 -2.175781 L 3.414062 -2.175781 L 3.414062 -2.203125 C 3.414062 -2.710938 3.128906 -3.316406 1.761719 -3.316406 C 0.492188 -3.316406 0.230469 -2.769531 0.230469 -2.308594 C 0.230469 -1.652344 0.816406 -1.441406 1.761719 -1.316406 C 1.808594 -1.3125 1.859375 -1.304688 1.90625 -1.300781 C 2.261719 -1.257812 2.582031 -1.210938 2.582031 -0.964844 C 2.582031 -0.746094 2.238281 -0.699219 1.882812 -0.699219 C 1.289062 -0.699219 1.074219 -0.828125 1.074219 -1.109375 L 1.074219 -1.140625 L 0.160156 -1.140625 L 0.160156 -1.074219 C 0.152344 -0.90625 0.152344 -0.628906 0.382812 -0.398438 C 0.648438 -0.136719 1.15625 0 1.90625 0 C 2.914062 0 3.503906 -0.160156 3.503906 -0.976562 C 3.503906 -1.757812 2.65625 -1.886719 1.910156 -2 Z M 1.910156 -2 "/></g></g></g><g fill="#8a9ebb" fill-opacity="1"><g transform="translate(66.141078, 42.788329)"><g/></g></g><g fill="#8a9ebb" fill-opacity="1"><g transform="translate(68.051531, 42.788329)"><g><path d="M 1.046875 0 L 1.046875 -3.273438 L 0.160156 -3.273438 L 0.160156 0 Z M 1.046875 -3.507812 L 1.046875 -4.308594 L 0.160156 -4.308594 L 0.160156 -3.507812 Z M 1.046875 -3.507812 "/></g></g></g><g fill="#8a9ebb" fill-opacity="1"><g transform="translate(69.25659, 42.788329)"><g><path d="M 2.199219 -3.296875 C 1.605469 -3.296875 1.304688 -3.105469 1.09375 -2.808594 L 1.050781 -2.808594 L 1.050781 -3.296875 L 0.160156 -3.296875 L 0.160156 0 L 1.050781 0 L 1.050781 -1.585938 C 1.050781 -2.035156 1.164062 -2.527344 1.941406 -2.527344 C 2.792969 -2.527344 2.738281 -1.90625 2.738281 -1.644531 L 2.738281 0 L 3.625 0 L 3.625 -1.644531 C 3.625 -2.128906 3.589844 -3.296875 2.199219 -3.296875 Z M 2.199219 -3.296875 "/></g></g></g><g fill="#8a9ebb" fill-opacity="1"><g transform="translate(73.048107, 42.788329)"><g><path d="M 1.492188 -2.535156 L 2.5625 -2.535156 L 2.5625 -3.285156 L 1.492188 -3.285156 L 1.492188 -4.238281 L 0.59375 -4.238281 L 0.59375 -3.285156 L 0.160156 -3.285156 L 0.160156 -2.535156 L 0.59375 -2.535156 L 0.59375 -1.210938 C 0.59375 -0.734375 0.59375 0 1.492188 0 C 2.386719 0 2.5625 -0.0585938 2.5625 -0.0585938 L 2.5625 -0.929688 C 1.703125 -0.882812 1.492188 -0.816406 1.492188 -1.292969 Z M 1.492188 -2.535156 "/></g></g></g><g fill="#8a9ebb" fill-opacity="1"><g transform="translate(75.769774, 42.788329)"><g><path d="M 3.65625 -1.441406 L 3.691406 -1.441406 C 3.738281 -1.894531 3.679688 -2.585938 3.046875 -3.019531 C 3.046875 -3.019531 3.046875 -3.015625 3.046875 -3.015625 C 2.769531 -3.210938 2.390625 -3.328125 1.929688 -3.328125 C 0.816406 -3.328125 0.160156 -2.738281 0.160156 -1.664062 C 0.160156 -0.5625 0.800781 0 1.929688 0 C 3.007812 0 3.585938 -0.433594 3.675781 -1.144531 L 2.808594 -1.144531 C 2.726562 -0.929688 2.464844 -0.78125 1.929688 -0.78125 C 1.351562 -0.78125 1.085938 -1 1.023438 -1.441406 Z M 1.929688 -2.546875 C 2.5625 -2.546875 2.726562 -2.273438 2.796875 -2.027344 L 1.058594 -2.027344 C 1.164062 -2.363281 1.433594 -2.546875 1.929688 -2.546875 Z M 1.929688 -2.546875 "/></g></g></g><g fill="#8a9ebb" fill-opacity="1"><g transform="translate(79.63183, 42.788329)"><g><path d="M 2.0625 -3.296875 C 1.492188 -3.296875 1.292969 -3.128906 1.105469 -2.808594 L 1.050781 -2.808594 L 1.050781 -3.296875 L 0.160156 -3.296875 L 0.160156 0 L 1.050781 0 L 1.050781 -1.476562 C 1.050781 -1.921875 1.246094 -2.441406 1.910156 -2.441406 C 2.191406 -2.441406 2.421875 -2.390625 2.503906 -2.367188 L 2.644531 -3.210938 C 2.492188 -3.246094 2.296875 -3.296875 2.0625 -3.296875 Z M 2.0625 -3.296875 "/></g></g></g><g fill="#8a9ebb" fill-opacity="1"><g transform="translate(82.441668, 42.788329)"><g><path d="M 2.199219 -3.296875 C 1.605469 -3.296875 1.304688 -3.105469 1.09375 -2.808594 L 1.050781 -2.808594 L 1.050781 -3.296875 L 0.160156 -3.296875 L 0.160156 0 L 1.050781 0 L 1.050781 -1.585938 C 1.050781 -2.035156 1.164062 -2.527344 1.941406 -2.527344 C 2.792969 -2.527344 2.738281 -1.90625 2.738281 -1.644531 L 2.738281 0 L 3.625 0 L 3.625 -1.644531 C 3.625 -2.128906 3.589844 -3.296875 2.199219 -3.296875 Z M 2.199219 -3.296875 "/></g></g></g><g fill="#8a9ebb" fill-opacity="1"><g transform="translate(86.233185, 42.788329)"><g><path d="M 3.65625 -1.441406 L 3.691406 -1.441406 C 3.738281 -1.894531 3.679688 -2.585938 3.046875 -3.019531 C 3.046875 -3.019531 3.046875 -3.015625 3.046875 -3.015625 C 2.769531 -3.210938 2.390625 -3.328125 1.929688 -3.328125 C 0.816406 -3.328125 0.160156 -2.738281 0.160156 -1.664062 C 0.160156 -0.5625 0.800781 0 1.929688 0 C 3.007812 0 3.585938 -0.433594 3.675781 -1.144531 L 2.808594 -1.144531 C 2.726562 -0.929688 2.464844 -0.78125 1.929688 -0.78125 C 1.351562 -0.78125 1.085938 -1 1.023438 -1.441406 Z M 1.929688 -2.546875 C 2.5625 -2.546875 2.726562 -2.273438 2.796875 -2.027344 L 1.058594 -2.027344 C 1.164062 -2.363281 1.433594 -2.546875 1.929688 -2.546875 Z M 1.929688 -2.546875 "/></g></g></g><g fill="#8a9ebb" fill-opacity="1"><g transform="translate(90.09524, 42.788329)"><g><path d="M 1.492188 -2.535156 L 2.5625 -2.535156 L 2.5625 -3.285156 L 1.492188 -3.285156 L 1.492188 -4.238281 L 0.59375 -4.238281 L 0.59375 -3.285156 L 0.160156 -3.285156 L 0.160156 -2.535156 L 0.59375 -2.535156 L 0.59375 -1.210938 C 0.59375 -0.734375 0.59375 0 1.492188 0 C 2.386719 0 2.5625 -0.0585938 2.5625 -0.0585938 L 2.5625 -0.929688 C 1.703125 -0.882812 1.492188 -0.816406 1.492188 -1.292969 Z M 1.492188 -2.535156 "/></g></g></g><g fill="#47b3b1" fill-opacity="1"><g transform="translate(56.835219, 30.731813)"><g><path d="M 0.421875 -8.792969 L 4.558594 -8.792969 L 4.558594 0 L 6.941406 0 L 6.941406 -8.792969 L 11.09375 -8.792969 L 11.09375 -10.96875 L 0.421875 -10.96875 Z M 0.421875 -8.792969 "/></g></g></g><g fill="#47b3b1" fill-opacity="1"><g transform="translate(68.352455, 30.731813)"><g><path d="M 6.050781 -11.140625 C 2.851562 -11.140625 0.421875 -9.167969 0.421875 -5.5625 C 0.421875 -1.894531 2.851562 0 6.050781 0 C 9.246094 0 11.675781 -1.957031 11.675781 -5.5625 C 11.675781 -9.167969 9.246094 -11.140625 6.050781 -11.140625 Z M 6.050781 -2.429688 C 4.152344 -2.429688 2.757812 -3.386719 2.757812 -5.5625 C 2.757812 -7.742188 4.152344 -8.714844 6.050781 -8.714844 C 7.945312 -8.714844 9.339844 -7.710938 9.339844 -5.5625 C 9.339844 -3.464844 7.945312 -2.429688 6.050781 -2.429688 Z M 6.050781 -2.429688 "/></g></g></g><g fill="#47b3b1" fill-opacity="1"><g transform="translate(80.480812, 30.731813)"><g><path d="M 8.683594 -5.609375 C 9.371094 -5.988281 9.746094 -6.644531 9.746094 -7.835938 C 9.746094 -10.046875 8.273438 -10.96875 6.003906 -10.96875 C 5.390625 -10.96875 4.953125 -10.96875 4.636719 -10.96875 L 0.421875 -10.96875 L 0.421875 0 C 0.421875 0 5.9375 0 7.128906 0 C 8.808594 0 10.21875 -1.003906 10.21875 -3.117188 C 10.21875 -4.558594 9.667969 -5.265625 8.683594 -5.609375 Z M 5.3125 -8.792969 C 6.472656 -8.792969 7.414062 -8.730469 7.414062 -7.632812 C 7.414062 -6.535156 6.519531 -6.488281 5.421875 -6.488281 C 4.8125 -6.488281 3.683594 -6.488281 2.804688 -6.488281 L 2.804688 -8.792969 C 3.132812 -8.792969 4.703125 -8.792969 5.3125 -8.792969 Z M 5.8125 -2.164062 C 5.015625 -2.164062 5.734375 -2.164062 4.796875 -2.164062 L 2.804688 -2.164062 L 2.804688 -4.574219 C 3.449219 -4.574219 5.375 -4.574219 6.128906 -4.574219 C 7.222656 -4.574219 7.882812 -4.402344 7.882812 -3.371094 C 7.882812 -2.242188 6.988281 -2.164062 5.8125 -2.164062 Z M 5.8125 -2.164062 "/></g></g></g></svg>